<?xml version="1.0" encoding="utf-8"?>
<!-- Generator: Adobe Illustrator 24.0.1, SVG Export Plug-In . SVG Version: 6.00 Build 0)  -->
<svg version="1.1" id="Layer_1" xmlns="http://www.w3.org/2000/svg" xmlns:xlink="http://www.w3.org/1999/xlink" x="0px" y="0px"
	 viewBox="0 0 30 30" style="enable-background:new 0 0 30 30;" xml:space="preserve">
<style type="text/css">
	.st0{fill:#FFFFFF;}
</style>
<polygon class="st0" points="11,22 8,19 8,14 16,22 "/>
<path class="st0" d="M27,3c0,0-9,0-16,7c-3,3-3,8-1,10s7,2,10-1C27,12,27,3,27,3z M17,11c0-1.1,0.9-2,2-2s2,0.9,2,2s-0.9,2-2,2
	S17,12.1,17,11z"/>
<path class="st0" d="M18.8,18.7c0,0,0.8,3.8-0.8,5.3c-2.3,2.3-6.1,3-6.1,3l1-7L18.8,18.7z"/>
<path class="st0" d="M11.3,11.2c0,0-3.8-0.8-5.3,0.8C3.8,14.2,3,18,3,18l7-1L11.3,11.2z"/>
<path class="st0" d="M9.5,22.3c0,0.1-0.1,0.1-0.1,0.2C8.4,23.5,7,23,7,23s-0.5-1.5,0.5-2.4c0.1-0.1,0.1-0.1,0.2-0.1L7.2,20
	c-0.4,0.1-0.7,0.3-1,0.6C4.8,21.9,5,25,5,25s3,0.2,4.4-1.1c0.3-0.3,0.5-0.7,0.6-1L9.5,22.3z"/>
</svg>
